<?xml version="1.0" encoding="utf-8"?>
<!-- Generator: Adobe Illustrator 19.2.0, SVG Export Plug-In . SVG Version: 6.00 Build 0)  -->
<svg version="1.1" id="Layer_1" xmlns="http://www.w3.org/2000/svg" xmlns:xlink="http://www.w3.org/1999/xlink" x="0px" y="0px"
	 viewBox="0 0 1509.1 230.7" style="enable-background:new 0 0 1509.1 230.7;" xml:space="preserve">
<style type="text/css">
	.st0{fill:#D42129;}
	.st1{fill:#3D3E44;}
</style>
<g>
	<g>
		<path class="st0" d="M115.3,0C51.6,0,0,51.6,0,115.3s51.6,115.3,115.3,115.3s115.3-51.6,115.3-115.3S179.1,0,115.3,0z
			 M102.2,141.5h-12L60.9,61.3h-0.3v80.2H44.3V44.9h26.2l25.8,67.6l26-67.6H149v37.7h-17.2V61.3h-0.3L102.2,141.5z M194.1,105.6H149
			v25.4h42.5v15.5H149v40.1h-17.2v-49.1h0V90H149h2h43.2V105.6z"/>
	</g>
	<g>
		<path class="st1" d="M398.5,61.8l6.3,3.2l-55.6,100.2l-6.3-3L398.5,61.8z"/>
		<path class="st1" d="M482.2,143.9l12-76.1l27.7,60.9l28.2-61l11.2,76.2h-8.2l-6.8-50.2l-24.5,53.2l-24.2-53.2l-7.1,50.2H482.2z"/>
		<path class="st1" d="M607.6,71.8v72.1h-8V71.8H607.6z"/>
		<path class="st1" d="M680,86.1c-1-1.9-2.6-4.1-4.2-5.4c-1.4-1.1-4-2.5-8.1-2.5c-7.1,0-12.1,4.4-12.1,11.1c0,2.8,0.8,4.4,2.7,6.3
			c2.2,2.2,4.9,3.4,7.6,4.5l6.9,3c4.2,1.8,8.1,3.8,11.1,6.8c3.7,3.7,5.2,7.9,5.2,13.1c0,13.3-9.8,22.2-22.8,22.2
			c-4.8,0-10.7-1-15.7-5.8c-3.6-3.5-5.7-8.4-6.7-12.8l7.8-2.2c0.5,3.8,2.3,7,4.3,9.2c3.1,3.1,6.7,4,10.4,4c9.8,0,14.5-7,14.5-14.3
			c0-3.2-1-6.1-3.6-8.4c-2.1-1.9-4.9-3.2-8.6-5l-6.5-3c-2.8-1.3-6.4-2.8-9.6-5.9c-3.1-3-5-6.4-5-11.8c0-11.1,8.5-18.6,20.2-18.6
			c4.4,0,8,0.9,11.6,3.2c2.9,1.9,5.4,4.9,7,8L680,86.1z"/>
		<path class="st1" d="M755.4,86.1c-1-1.9-2.6-4.1-4.2-5.4c-1.4-1.1-4-2.5-8.1-2.5c-7.1,0-12.1,4.4-12.1,11.1c0,2.8,0.8,4.4,2.7,6.3
			c2.2,2.2,4.9,3.4,7.6,4.5l6.9,3c4.2,1.8,8.1,3.8,11.1,6.8c3.7,3.7,5.2,7.9,5.2,13.1c0,13.3-9.8,22.2-22.8,22.2
			c-4.8,0-10.7-1-15.7-5.8c-3.6-3.5-5.7-8.4-6.7-12.8l7.8-2.2c0.5,3.8,2.3,7,4.3,9.2c3.1,3.1,6.7,4,10.4,4c9.8,0,14.5-7,14.5-14.3
			c0-3.2-1-6.1-3.6-8.4c-2.1-1.9-4.9-3.2-8.6-5l-6.5-3c-2.8-1.3-6.4-2.8-9.6-5.9c-3.1-3-5-6.4-5-11.8c0-11.1,8.5-18.6,20.2-18.6
			c4.4,0,8,0.9,11.6,3.2c2.9,1.9,5.4,4.9,7,8L755.4,86.1z"/>
		<path class="st1" d="M808.8,71.8v72.1h-8V71.8H808.8z"/>
		<path class="st1" d="M849,143.9V68.8l56.2,58.9V71.8h8v75.4L857,88.2v55.7H849z"/>
		<path class="st1" d="M990.6,107.7h30.1v1.7c0,8-2.4,16.6-6.9,22.8c-2.2,2.9-10.3,13-26.8,13c-21.4,0-37.4-16.3-37.4-37.3
			c0-21,16.1-37.3,37.6-37.3c6.9,0,15,1.7,22.1,7.1c3.2,2.5,6.3,5.7,8.3,8.5l-5.9,5.4c-2.1-2.9-4.4-5.5-6.8-7.5
			c-3.5-2.8-8.9-6.1-17.5-6.1c-17.4,0-29.5,13.1-29.5,29.8c0,19.7,15.7,29.6,29.3,29.6c9.6,0,17.9-4.9,22.1-12.1
			c1.3-2.3,2.7-5.7,2.9-10.3h-21.4V107.7z"/>
		<path class="st1" d="M1136.6,79.4h-24.9v21.3h24v7.6h-24v35.7h-8V71.8h32.9V79.4z"/>
		<path class="st1" d="M1209.7,79.4h-29.4v21.4h28.5v7.6h-28.5v28h29.4v7.6h-37.4V71.8h37.4V79.4z"/>
		<path class="st1" d="M1283.5,79.4h-29.4v21.4h28.5v7.6h-28.5v28h29.4v7.6h-37.4V71.8h37.4V79.4z"/>
		<path class="st1" d="M1319.8,71.8h14.7c7.2,0,17.5,0.8,26.6,8.4c6.6,5.5,12.3,14.7,12.3,27.7c0,15.1-7.5,23.2-12.6,27.7
			c-6.6,5.6-13.5,8.3-26.4,8.3h-14.6V71.8z M1327.8,136.3h7c5.7,0,13.6-0.6,20.6-6.5c5.4-4.5,9.7-11.7,9.7-21.9
			c0-17.3-12.1-28.5-30.4-28.5h-7V136.3z"/>
		<path class="st1" d="M1502.8,61.8l6.3,3.2l-55.6,100.2l-6.3-3L1502.8,61.8z"/>
	</g>
</g>
</svg>
